<?xml version="1.0" standalone="no"?>
<!DOCTYPE svg PUBLIC "-//W3C//DTD SVG 20010904//EN"
 "http://www.w3.org/TR/2001/REC-SVG-20010904/DTD/svg10.dtd">
<svg version="1.0" xmlns="http://www.w3.org/2000/svg"
 width="500.000000pt" height="500.000000pt" viewBox="0 0 500.000000 500.000000"
 preserveAspectRatio="xMidYMid meet">

<g transform="translate(0.000000,500.000000) scale(0.100000,-0.100000)"
fill="#000000" stroke="none">
<path d="M2184 3236 c-17 -8 -44 -31 -60 -52 l-29 -37 -3 -234 c-3 -222 -2
-236 18 -278 22 -46 72 -85 109 -85 17 0 21 6 21 34 0 28 -4 35 -26 40 -48 12
-55 54 -52 291 3 210 3 214 27 239 l24 26 348 0 c191 0 355 -3 364 -6 38 -15
45 -54 45 -273 0 -117 -4 -221 -10 -236 -6 -15 -23 -32 -40 -38 -25 -9 -30
-17 -30 -44 0 -27 4 -33 21 -33 37 0 87 39 109 85 20 41 21 56 18 279 -3 258
-4 259 -72 310 -26 20 -41 21 -389 23 -290 2 -368 0 -393 -11z"/>
<path d="M2412 2818 c3 -112 3 -113 28 -116 42 -5 108 -32 114 -48 4 -11 0
-13 -22 -7 -15 3 -56 7 -92 8 -36 1 -68 3 -72 4 -5 0 -8 53 -8 116 0 96 -3
115 -15 115 -13 0 -15 -21 -15 -130 l0 -130 235 0 235 0 0 130 c0 109 -2 130
-15 130 -12 0 -15 -19 -15 -115 0 -84 -3 -115 -12 -117 -7 -1 -40 -2 -73 -3
-34 -1 -74 -5 -90 -9 l-30 -6 28 24 c15 14 44 28 65 31 20 4 43 8 50 10 9 3
12 35 12 115 l0 110 -27 0 c-32 0 -107 -32 -118 -50 -5 -8 -13 -6 -29 8 -24
22 -78 42 -113 42 l-24 0 3 -112z"/>
<path d="M2518 2534 c-3 -3 -1 -18 5 -35 9 -24 17 -29 43 -29 22 0 33 6 37 18
2 9 8 25 12 35 6 15 1 17 -42 17 -27 0 -52 -3 -55 -6z"/>
<path d="M2440 2405 c-11 -13 4 -15 125 -15 121 0 136 2 125 15 -10 12 -37 15
-125 15 -88 0 -115 -3 -125 -15z"/>
<path d="M2300 2305 l-34 -35 299 0 298 0 -19 22 c-40 48 -38 47 -280 48
l-230 0 -34 -35z"/>
<path d="M1022 2140 c-28 -12 -46 -51 -38 -84 4 -18 22 -34 56 -51 76 -38 60
-80 -22 -58 -36 10 -38 9 -38 -14 0 -47 109 -55 151 -10 39 42 17 95 -56 128
-46 22 -39 44 13 44 31 0 46 5 53 18 8 14 5 19 -16 27 -32 12 -72 12 -103 0z"/>
<path d="M1242 2137 c-10 -15 -16 -167 -7 -207 5 -25 11 -30 36 -30 28 0 29 2
29 45 0 34 4 45 15 45 8 0 25 -20 37 -45 20 -40 26 -45 56 -45 l33 0 -37 68
-37 68 36 51 c21 28 37 53 37 56 0 7 -59 2 -64 -4 -1 -2 -18 -26 -37 -53 l-34
-48 -3 51 c-2 28 -6 51 -10 52 -4 0 -15 2 -24 4 -9 2 -21 -2 -26 -8z"/>
<path d="M1538 2143 c-16 -4 -18 -19 -18 -124 l0 -119 30 0 30 0 0 125 c0 130
0 129 -42 118z"/>
<path d="M1693 2143 c-10 -3 -13 -38 -13 -124 l0 -119 80 0 c73 0 80 2 80 20
0 17 -7 20 -44 20 -54 0 -56 4 -56 121 0 93 -4 100 -47 82z"/>
<path d="M1937 2143 c-4 -3 -7 -60 -7 -125 l0 -118 80 0 c73 0 80 2 80 19 0
17 -8 20 -47 23 l-48 3 -3 95 c-3 91 -9 109 -38 110 -6 0 -14 -3 -17 -7z"/>
<path d="M2180 2025 l0 -125 30 0 30 0 0 119 c0 99 -3 120 -16 125 -42 16 -44
12 -44 -119z"/>
<path d="M2347 2144 c-4 -4 -7 -49 -7 -100 0 -83 2 -96 24 -120 20 -24 31 -28
73 -28 96 0 117 33 111 174 -3 78 -3 77 -48 71 -6 0 -10 -37 -10 -85 0 -86
-12 -116 -45 -116 -33 0 -45 30 -45 116 0 46 -4 84 -9 84 -5 0 -16 2 -23 5 -8
3 -17 2 -21 -1z"/>
<path d="M2654 2141 c-2 -2 -4 -58 -4 -123 l0 -118 25 0 c25 0 25 1 25 80 0
47 4 80 10 80 6 0 10 -5 10 -11 0 -6 10 -42 21 -80 21 -68 22 -70 52 -67 28 3
31 7 49 73 28 101 38 103 38 7 0 -81 0 -82 25 -82 l25 0 0 120 c0 107 -2 120
-17 122 -65 5 -63 7 -93 -100 -12 -40 -25 -70 -29 -68 -5 3 -19 42 -32 86 -12
44 -25 80 -28 81 -25 3 -73 3 -77 0z"/>
<path d="M3173 2138 c-7 -10 -9 -124 -3 -230 0 -5 36 -8 80 -8 73 0 80 2 80
19 0 17 -8 20 -47 23 l-48 3 -3 95 c-3 91 -9 109 -38 110 -6 0 -16 -6 -21 -12z"/>
<path d="M3462 2123 c-6 -15 -23 -66 -38 -113 -15 -47 -29 -91 -32 -97 -3 -9
7 -13 32 -13 25 0 36 5 36 14 0 19 10 25 54 30 32 4 39 1 48 -20 8 -17 19 -24
40 -24 16 0 28 5 27 13 0 6 -17 62 -38 122 l-38 110 -40 3 c-36 3 -41 0 -51
-25z m68 -73 c12 -46 7 -60 -20 -60 -26 0 -28 8 -18 58 11 53 24 54 38 2z"/>
<path d="M3716 2143 c-3 -4 -6 -60 -6 -125 l0 -118 75 0 c62 0 79 4 95 20 24
24 26 67 4 91 -14 16 -14 20 1 43 19 28 13 61 -14 75 -21 12 -147 22 -155 14z
m112 -70 c3 -19 -1 -23 -22 -23 -28 0 -41 14 -32 36 9 24 50 13 54 -13z m9
-89 c7 -19 -15 -44 -38 -44 -23 0 -32 16 -25 44 5 19 11 22 32 18 14 -2 28
-11 31 -18z"/>
<path d="M4022 2140 c-12 -5 -27 -21 -33 -34 -18 -39 3 -78 57 -104 32 -16 44
-27 42 -40 -3 -14 -13 -17 -57 -15 -49 2 -52 1 -49 -19 7 -53 143 -42 162 13
15 43 1 73 -46 99 -72 40 -73 66 -3 57 37 -6 44 -4 48 14 9 33 -65 51 -121 29z"/>
<path d="M1593 1725 c0 -27 2 -38 4 -22 2 15 2 37 0 50 -2 12 -4 0 -4 -28z"/>
<path d="M2372 1723 c-2 -52 -1 -53 26 -52 23 0 24 1 7 8 -14 6 -22 21 -26 52
l-6 44 -1 -52z"/>
<path d="M3020 1720 c0 -48 1 -50 28 -49 26 0 26 1 5 9 -13 5 -23 16 -23 24 0
8 10 17 23 19 l22 4 -22 2 c-13 0 -23 7 -23 15 0 8 10 17 23 19 19 4 18 4 -5
6 -27 1 -28 -1 -28 -49z"/>
<path d="M1402 1744 c13 -4 16 -14 14 -35 -2 -16 1 -29 6 -29 5 0 8 15 6 32
-2 24 -8 33 -23 35 -15 1 -16 1 -3 -3z"/>
<path d="M1498 1738 c7 -7 12 -22 12 -35 0 -13 5 -23 10 -23 6 0 8 11 6 25 -6
32 -14 45 -29 45 -8 0 -8 -3 1 -12z"/>
<path d="M1668 1738 c7 -7 12 -23 12 -37 0 -28 12 -21 17 11 2 12 -2 25 -9 30
-20 12 -33 9 -20 -4z"/>
<path d="M1717 1739 c6 -8 13 -25 16 -39 4 -17 5 -15 4 9 -1 21 -8 36 -17 39
-12 4 -13 2 -3 -9z"/>
<path d="M1814 1734 c3 -8 6 -25 6 -36 0 -26 5 -21 14 13 4 20 1 29 -10 33
-12 5 -15 2 -10 -10z"/>
<path d="M1857 1739 c6 -8 13 -25 16 -39 4 -17 5 -15 4 9 -1 21 -8 36 -17 39
-12 4 -13 2 -3 -9z"/>
<path d="M1923 1743 c-7 -2 -13 -17 -13 -33 0 -26 16 -41 43 -39 7 0 2 4 -10
9 -16 7 -22 16 -20 32 4 25 27 37 27 14 0 -9 5 -16 10 -16 16 0 11 27 -6 34
-9 3 -16 6 -17 5 -1 0 -8 -3 -14 -6z"/>
<path d="M2056 1741 c-5 -7 2 -22 18 -36 18 -17 26 -20 26 -10 0 8 -5 15 -10
15 -6 0 -14 10 -19 22 -5 15 -10 18 -15 9z"/>
<path d="M2252 1738 c-24 -24 -6 -68 28 -68 12 1 12 2 -2 11 -19 10 -25 59 -9
59 16 0 22 -18 9 -23 -8 -3 -6 -6 5 -6 21 -1 23 25 1 33 -20 8 -18 8 -32 -6z"/>
<path d="M2452 1738 c-18 -18 -15 -46 7 -58 25 -13 42 -13 19 1 -21 12 -25 63
-5 56 6 -2 11 -10 10 -16 -2 -6 2 -11 8 -11 16 0 6 34 -11 38 -9 1 -21 -3 -28
-10z"/>
<path d="M2553 1743 c11 -3 17 -14 17 -34 0 -16 4 -29 9 -29 12 0 11 41 -2 58
-5 6 -17 11 -26 11 -13 -1 -13 -2 2 -6z"/>
<path d="M2708 1742 c7 -5 17 -22 22 -38 l9 -29 -2 35 c-1 26 -7 36 -22 38
-14 2 -16 1 -7 -6z"/>
<path d="M2847 1739 c6 -8 13 -25 16 -39 4 -17 5 -15 4 9 -1 21 -8 36 -17 39
-12 4 -13 2 -3 -9z"/>
<path d="M2904 1739 c-10 -16 -12 -89 -2 -95 4 -3 5 2 2 10 -3 9 -1 16 5 16 7
0 9 13 5 36 -4 28 -2 35 8 32 7 -3 12 -13 10 -23 -2 -10 1 -14 7 -10 6 3 11
15 11 26 0 21 -34 27 -46 8z"/>
<path d="M3140 1739 c0 -6 -8 -9 -17 -7 -14 4 -18 -2 -19 -24 -1 -20 2 -25 11
-18 7 6 15 6 21 0 5 -5 9 4 10 26 0 19 -1 34 -3 34 -2 0 -3 -5 -3 -11z"/>
<path d="M3180 1694 c0 -32 2 -55 5 -52 9 8 11 99 3 104 -4 3 -8 -21 -8 -52z"/>
<path d="M3222 1731 c11 -17 11 -25 0 -42 -11 -18 -11 -20 0 -17 7 3 13 19 13
38 0 19 -6 35 -13 38 -11 3 -11 1 0 -17z"/>
<path d="M3270 1731 c-5 -11 -10 -22 -10 -25 0 -9 32 -36 43 -36 6 0 3 6 -7
13 -20 15 -18 48 3 55 10 3 12 0 8 -12 -4 -10 -1 -16 8 -16 18 0 19 12 3 28
-18 18 -36 15 -48 -7z"/>
<path d="M3462 1738 c-25 -25 -1 -77 30 -65 9 4 7 6 -4 6 -12 1 -16 10 -16 31
1 18 6 29 12 27 6 -3 10 -10 9 -16 -2 -6 2 -11 7 -11 16 0 11 27 -6 34 -20 8
-18 8 -32 -6z"/>
<path d="M3577 1739 c6 -8 13 -25 16 -39 4 -17 5 -15 4 9 -1 21 -8 36 -17 39
-12 4 -13 2 -3 -9z"/>
<path d="M3630 1731 c-5 -11 -10 -22 -10 -25 0 -10 32 -36 43 -36 7 0 4 5 -5
11 -10 5 -18 19 -18 29 0 10 8 24 18 29 16 10 16 10 0 11 -10 0 -22 -9 -28
-19z"/>
<path d="M3737 1731 c3 -12 9 -21 14 -21 14 0 11 16 -5 29 -12 10 -13 8 -9 -8z"/>
<path d="M1460 1710 c0 -16 2 -30 4 -30 2 0 6 14 8 30 3 17 1 30 -4 30 -4 0
-8 -13 -8 -30z"/>
<path d="M1630 1710 c0 -16 5 -30 10 -30 6 0 10 14 10 30 0 17 -4 30 -10 30
-5 0 -10 -13 -10 -30z"/>
<path d="M1770 1708 c0 -36 4 -35 14 5 4 16 2 27 -4 27 -5 0 -10 -14 -10 -32z"/>
<path d="M1990 1710 c0 -16 5 -30 10 -30 6 0 10 14 10 30 0 17 -4 30 -10 30
-5 0 -10 -13 -10 -30z"/>
<path d="M2132 1710 c0 -19 2 -27 5 -17 2 9 2 25 0 35 -3 9 -5 1 -5 -18z"/>
<path d="M2160 1735 c0 -3 7 -20 16 -37 l16 -32 14 25 c7 13 13 31 13 39 0 9
-5 6 -11 -7 -12 -26 -28 -30 -28 -9 0 8 -4 18 -10 21 -5 3 -10 3 -10 0z"/>
<path d="M2611 1708 c0 -28 2 -30 9 -13 12 28 12 45 0 45 -5 0 -10 -15 -9 -32z"/>
<path d="M2670 1710 c0 -16 5 -30 10 -30 6 0 10 14 10 30 0 17 -4 30 -10 30
-5 0 -10 -13 -10 -30z"/>
<path d="M2772 1710 c0 -19 2 -27 5 -17 2 9 2 25 0 35 -3 9 -5 1 -5 -18z"/>
<path d="M2810 1710 c0 -16 2 -30 4 -30 2 0 6 14 8 30 3 17 1 30 -4 30 -4 0
-8 -13 -8 -30z"/>
<path d="M3350 1708 c0 -36 4 -35 14 5 4 16 2 27 -4 27 -5 0 -10 -14 -10 -32z"/>
<path d="M3410 1710 c0 -16 5 -30 10 -30 6 0 10 14 10 30 0 17 -4 30 -10 30
-5 0 -10 -13 -10 -30z"/>
<path d="M3540 1710 c0 -16 2 -30 4 -30 2 0 6 14 8 30 3 17 1 30 -4 30 -4 0
-8 -13 -8 -30z"/>
<path d="M3700 1710 c0 -16 2 -30 4 -30 2 0 13 -3 23 -6 17 -5 17 -5 0 6 -11
7 -16 20 -13 36 3 13 0 24 -5 24 -5 0 -9 -13 -9 -30z"/>
<path d="M1376 1701 c-5 -7 -3 -18 3 -24 14 -14 20 -6 11 17 -5 15 -9 16 -14
7z"/>
<path d="M2526 1701 c-5 -7 -3 -18 3 -24 14 -14 20 -6 11 17 -5 15 -9 16 -14
7z"/>
<path d="M2936 1665 c4 -8 10 -15 15 -15 5 0 9 7 9 15 0 8 -7 15 -15 15 -9 0
-12 -6 -9 -15z"/>
</g>
</svg>
